<svg version="1.1" id="Layer_1" xmlns="http://www.w3.org/2000/svg" xmlns:xlink="http://www.w3.org/1999/xlink" x="0px" y="0px"
	 width="100%" viewBox="0 0 236 102" enable-background="new 0 0 236 102" xml:space="preserve">
<path fill="#6450B3" opacity="1.000000" stroke="none" 
	d="
M187.000000,103.000000 
	C124.666672,103.000000 62.833347,103.000000 1.000017,103.000000 
	C1.000011,69.000015 1.000011,35.000023 1.000005,1.000026 
	C79.666649,1.000017 158.333298,1.000017 236.999954,1.000009 
	C236.999969,34.999973 236.999969,68.999947 236.999985,102.999962 
	C220.500000,103.000000 204.000000,103.000000 187.000000,103.000000 
M195.668442,51.329391 
	C196.918640,49.823009 197.990738,48.111076 199.450287,46.846272 
	C205.367554,41.718632 211.473495,36.808197 217.372879,31.660669 
	C221.605774,27.967228 222.260956,24.059803 219.544037,20.848255 
	C216.740067,17.533821 213.093826,17.625063 208.566696,21.334820 
	C202.510468,26.297598 196.566422,31.397190 190.520966,36.373348 
	C189.212479,37.450394 187.677765,38.252605 185.592117,39.606777 
	C185.183319,36.898067 184.992615,35.123096 184.636703,33.381897 
	C183.873840,29.649635 181.619888,27.328581 177.733109,27.472126 
	C173.830536,27.616257 171.373077,30.230419 171.326462,33.894863 
	C171.212311,42.868546 171.635056,51.849049 171.595551,61.776951 
	C171.460220,65.760498 171.101776,69.752426 171.251129,73.725281 
	C171.406235,77.851410 173.395813,80.795303 177.976089,80.782600 
	C182.270889,80.770691 184.296753,78.077866 184.530426,74.104836 
	C184.803391,69.463791 184.743408,64.803162 185.418503,60.000965 
	C185.823334,59.967976 186.228180,59.934982 187.198288,60.340706 
	C193.485306,66.503937 199.701843,72.741592 206.093857,78.793922 
	C208.665802,81.229202 211.901886,81.745857 214.622391,79.150047 
	C217.244919,76.647720 217.182785,73.526291 215.071060,70.557602 
	C214.496979,69.750557 213.837585,68.981796 213.112808,68.307884 
	C207.273941,62.878777 201.410049,57.476570 195.668442,51.329391 
M114.702431,61.520962 
	C116.522392,57.908012 117.037476,54.367035 113.917549,50.114197 
	C113.561440,45.133072 113.205330,40.151943 113.119148,34.584522 
	C112.779266,28.548191 109.913666,25.109854 104.140694,24.166044 
	C104.140694,24.166044 103.983398,23.919617 103.750267,23.240753 
	C100.585243,19.441540 94.446770,18.734459 88.234634,21.764988 
	C87.158554,21.765720 86.082474,21.766453 84.631447,21.316946 
	C81.567696,22.021507 78.079590,22.019638 75.517235,23.558870 
	C66.706955,28.851295 66.463051,37.937828 66.338722,46.827805 
	C66.255310,52.791801 66.222214,58.781445 66.680923,64.719887 
	C67.024315,69.165413 68.188011,73.547585 69.348534,78.555412 
	C72.035538,79.367104 74.722534,80.178795 77.947044,80.702515 
	C78.283310,80.476204 78.619583,80.249893 79.361443,79.422432 
	C80.117783,77.613411 81.129341,75.864342 81.571579,73.981544 
	C82.261932,71.042389 81.557739,66.716515 83.299072,65.361298 
	C85.310181,63.796139 89.332207,64.776360 92.482185,64.733253 
	C93.633553,64.717499 94.788132,64.936638 96.116547,65.783463 
	C97.391380,69.186203 98.666214,72.588936 100.055618,76.407539 
	C100.055618,76.407539 100.073639,76.838516 100.422348,77.237907 
	C100.668198,77.490334 100.914055,77.742767 101.723885,78.379501 
	C107.152107,82.262428 110.291313,81.574020 114.257843,75.597946 
	C117.335114,73.689690 117.727211,71.844299 113.926613,69.206161 
	C113.993538,66.793030 114.060463,64.379898 114.702431,61.520962 
M140.112366,20.561659 
	C129.859711,22.472794 124.333527,27.655540 123.327454,36.303432 
	C122.374893,44.491379 126.696381,50.642391 136.337311,54.794754 
	C139.089142,55.979980 142.266266,56.632141 144.484116,58.457386 
	C146.221939,59.887600 147.826508,62.896439 147.543015,64.932838 
	C147.301575,66.667130 144.398071,69.078323 142.467422,69.286041 
	C139.523575,69.602776 136.240204,68.684975 133.396851,67.550117 
	C129.444580,65.972664 126.033577,65.951279 123.866592,69.849792 
	C121.659157,73.821098 123.724342,76.872940 127.084755,79.168419 
	C134.684158,84.359543 149.374283,83.274651 156.188034,77.055252 
	C165.344849,68.697182 163.683975,54.316475 152.770386,48.452885 
	C148.820724,46.330833 144.409164,44.991745 140.682266,42.567001 
	C139.029327,41.491577 137.360214,38.227509 137.864578,36.649040 
	C138.409683,34.943008 141.352737,33.646267 143.502502,32.939602 
	C144.858383,32.493908 146.762207,33.240288 148.273712,33.828480 
	C153.636292,35.915302 156.730499,35.351807 158.045029,31.834404 
	C159.544434,27.822329 157.584946,23.550756 152.727142,22.087164 
	C148.979752,20.958115 144.890900,20.962391 140.112366,20.561659 
M58.817017,32.610355 
	C62.236347,26.086802 60.182617,22.042019 53.106079,21.904644 
	C44.115566,21.730110 35.118462,21.816149 26.125128,21.895069 
	C20.701511,21.942661 18.293961,23.939295 18.246475,28.112631 
	C18.199987,32.198242 20.683512,34.122070 26.152031,34.236561 
	C32.755802,34.374813 32.751526,34.374809 32.751461,41.142506 
	C32.751358,51.635460 32.652908,62.129910 32.802631,72.620781 
	C32.886005,78.462677 35.876694,81.418968 40.517818,80.620941 
	C45.115200,79.830452 46.094509,76.357208 46.113991,72.425346 
	C46.167645,61.599472 46.130310,50.773170 46.158356,39.947117 
	C46.162891,38.195614 46.317722,36.444504 46.389469,34.972500 
	C50.729916,34.281506 54.453011,33.688793 58.817017,32.610355 
z"/>
<path fill="#F7F5FA" opacity="1.000000" stroke="none" 
	d="
M113.612053,75.772499 
	C110.291313,81.574020 107.152107,82.262428 101.373695,77.911522 
	C100.706886,77.241867 100.390259,77.040192 100.073639,76.838516 
	C100.073639,76.838516 100.055618,76.407539 100.117401,75.751709 
	C100.186256,72.955002 100.066093,70.804337 100.229805,68.675499 
	C100.484726,65.360374 99.279427,64.002510 95.941246,65.048615 
	C94.788132,64.936638 93.633553,64.717499 92.482185,64.733253 
	C89.332207,64.776360 85.310181,63.796139 83.299072,65.361298 
	C81.557739,66.716515 82.261932,71.042389 81.571579,73.981544 
	C81.129341,75.864342 80.117783,77.613411 78.842072,79.777130 
	C78.018311,80.418045 77.713928,80.704269 77.409538,80.990486 
	C74.722534,80.178795 72.035538,79.367104 69.180237,77.840408 
	C68.753014,66.326836 68.335030,55.529152 68.276047,44.729500 
	C68.204735,31.672171 72.758072,25.617315 85.006393,21.767187 
	C86.082474,21.766453 87.158554,21.765720 89.062653,21.763428 
	C94.588242,22.481119 99.285820,23.200369 103.983398,23.919617 
	C103.983398,23.919617 104.140694,24.166044 104.500183,24.448448 
	C107.522858,28.210842 110.186035,31.690828 112.849213,35.170815 
	C113.205330,40.151943 113.561440,45.133072 113.911987,51.010235 
	C113.980087,55.259769 114.053734,58.613270 114.127380,61.966766 
	C114.060463,64.379898 113.993538,66.793030 113.912918,70.040436 
	C113.803490,72.507309 113.707771,74.139908 113.612053,75.772499 
M97.435989,36.254505 
	C92.524055,33.592564 85.751617,33.287987 84.346611,36.775948 
	C82.477051,41.417175 82.634857,46.883774 82.034904,52.009041 
	C81.992699,52.369621 82.890259,53.209942 83.338821,53.201336 
	C88.092766,53.110123 92.885834,53.177113 97.565361,52.495293 
	C98.647682,52.337601 100.166862,49.435547 100.046677,47.909626 
	C99.756615,44.226852 98.616524,40.611031 97.435989,36.254505 
z"/>
<path fill="#F7F6FA" opacity="1.000000" stroke="none" 
	d="
M140.533112,20.512215 
	C144.890900,20.962391 148.979752,20.958115 152.727142,22.087164 
	C157.584946,23.550756 159.544434,27.822329 158.045029,31.834404 
	C156.730499,35.351807 153.636292,35.915302 148.273712,33.828480 
	C146.762207,33.240288 144.858383,32.493908 143.502502,32.939602 
	C141.352737,33.646267 138.409683,34.943008 137.864578,36.649040 
	C137.360214,38.227509 139.029327,41.491577 140.682266,42.567001 
	C144.409164,44.991745 148.820724,46.330833 152.770386,48.452885 
	C163.683975,54.316475 165.344849,68.697182 156.188034,77.055252 
	C149.374283,83.274651 134.684158,84.359543 127.084755,79.168419 
	C123.724342,76.872940 121.659157,73.821098 123.866592,69.849792 
	C126.033577,65.951279 129.444580,65.972664 133.396851,67.550117 
	C136.240204,68.684975 139.523575,69.602776 142.467422,69.286041 
	C144.398071,69.078323 147.301575,66.667130 147.543015,64.932838 
	C147.826508,62.896439 146.221939,59.887600 144.484116,58.457386 
	C142.266266,56.632141 139.089142,55.979980 136.337311,54.794754 
	C126.696381,50.642391 122.374893,44.491379 123.327454,36.303432 
	C124.333527,27.655540 129.859711,22.472794 140.533112,20.512215 
z"/>
<path fill="#9AF376" opacity="1.000000" stroke="none" 
	d="
M186.633011,59.901989 
	C186.228180,59.934982 185.823334,59.967976 184.778290,60.117569 
	C180.142685,62.576530 176.131546,64.592514 171.841751,60.826809 
	C171.635056,51.849049 171.212311,42.868546 171.326462,33.894863 
	C171.373077,30.230419 173.830536,27.616257 177.733109,27.472126 
	C181.619888,27.328581 183.873840,29.649635 184.636703,33.381897 
	C184.992615,35.123096 185.183319,36.898067 185.592117,39.606777 
	C187.677765,38.252605 189.212479,37.450394 190.520966,36.373348 
	C196.566422,31.397190 202.510468,26.297598 208.566696,21.334820 
	C213.093826,17.625063 216.740067,17.533821 219.544037,20.848255 
	C222.260956,24.059803 221.605774,27.967228 217.372879,31.660669 
	C211.473495,36.808197 205.367554,41.718632 199.450287,46.846272 
	C197.990738,48.111076 196.918640,49.823009 195.304077,51.772850 
	C192.170822,54.778198 189.401917,57.340096 186.633011,59.901989 
z"/>
<path fill="#FAF8FC" opacity="1.000000" stroke="none" 
	d="
M58.496559,32.853218 
	C54.453011,33.688793 50.729916,34.281506 46.389469,34.972500 
	C46.317722,36.444504 46.162891,38.195614 46.158356,39.947117 
	C46.130310,50.773170 46.167645,61.599472 46.113991,72.425346 
	C46.094509,76.357208 45.115200,79.830452 40.517818,80.620941 
	C35.876694,81.418968 32.886005,78.462677 32.802631,72.620781 
	C32.652908,62.129910 32.751358,51.635460 32.751461,41.142506 
	C32.751526,34.374809 32.755802,34.374813 26.152031,34.236561 
	C20.683512,34.122070 18.199987,32.198242 18.246475,28.112631 
	C18.293961,23.939295 20.701511,21.942661 26.125128,21.895069 
	C35.118462,21.816149 44.115566,21.730110 53.106079,21.904644 
	C60.182617,22.042019 62.236347,26.086802 58.496559,32.853218 
z"/>
<path fill="#F4F4F7" opacity="1.000000" stroke="none" 
	d="
M186.915649,60.121346 
	C189.401917,57.340096 192.170822,54.778198 195.246765,52.141220 
	C201.410049,57.476570 207.273941,62.878777 213.112808,68.307884 
	C213.837585,68.981796 214.496979,69.750557 215.071060,70.557602 
	C217.182785,73.526291 217.244919,76.647720 214.622391,79.150047 
	C211.901886,81.745857 208.665802,81.229202 206.093857,78.793922 
	C199.701843,72.741592 193.485306,66.503937 186.915649,60.121346 
z"/>
<path fill="#EBECF0" opacity="1.000000" stroke="none" 
	d="
M171.718658,61.301880 
	C176.131546,64.592514 180.142685,62.576530 184.482986,60.192604 
	C184.743408,64.803162 184.803391,69.463791 184.530426,74.104836 
	C184.296753,78.077866 182.270889,80.770691 177.976089,80.782600 
	C173.395813,80.795303 171.406235,77.851410 171.251129,73.725281 
	C171.101776,69.752426 171.460220,65.760498 171.718658,61.301880 
z"/>
<path fill="#6A5CA0" opacity="1.000000" stroke="none" 
	d="
M84.818924,21.542067 
	C72.758072,25.617315 68.204735,31.672171 68.276047,44.729500 
	C68.335030,55.529152 68.753014,66.326836 68.999199,77.541679 
	C68.188011,73.547585 67.024315,69.165413 66.680923,64.719887 
	C66.222214,58.781445 66.255310,52.791801 66.338722,46.827805 
	C66.463051,37.937828 66.706955,28.851295 75.517235,23.558870 
	C78.079590,22.019638 81.567696,22.021507 84.818924,21.542067 
z"/>
<path fill="#6A5CA0" opacity="1.000000" stroke="none" 
	d="
M103.866837,23.580185 
	C99.285820,23.200369 94.588242,22.481119 89.452515,21.652607 
	C94.446770,18.734459 100.585243,19.441540 103.866837,23.580185 
z"/>
<path fill="#64559B" opacity="1.000000" stroke="none" 
	d="
M96.028900,65.416039 
	C99.279427,64.002510 100.484726,65.360374 100.229805,68.675499 
	C100.066093,70.804337 100.186256,72.955002 100.060112,75.543777 
	C98.666214,72.588936 97.391380,69.186203 96.028900,65.416039 
z"/>
<path fill="#6A5CA0" opacity="1.000000" stroke="none" 
	d="
M112.984184,34.877670 
	C110.186035,31.690828 107.522858,28.210842 104.646347,24.446592 
	C109.913666,25.109854 112.779266,28.548191 112.984184,34.877670 
z"/>
<path fill="#6A5CA0" opacity="1.000000" stroke="none" 
	d="
M114.414902,61.743866 
	C114.053734,58.613270 113.980087,55.259769 114.014717,51.460739 
	C117.037476,54.367035 116.522392,57.908012 114.414902,61.743866 
z"/>
<path fill="#6A5CA0" opacity="1.000000" stroke="none" 
	d="
M113.934952,75.685226 
	C113.707771,74.139908 113.803490,72.507309 114.014084,70.483521 
	C117.727211,71.844299 117.335114,73.689690 113.934952,75.685226 
z"/>
<path fill="#64559B" opacity="1.000000" stroke="none" 
	d="
M100.247993,77.038208 
	C100.390259,77.040192 100.706886,77.241867 101.091705,77.719368 
	C100.914055,77.742767 100.668198,77.490334 100.247993,77.038208 
z"/>
<path fill="#6A5CA0" opacity="1.000000" stroke="none" 
	d="
M77.678291,80.846497 
	C77.713928,80.704269 78.018311,80.418045 78.639282,80.077705 
	C78.619583,80.249893 78.283310,80.476204 77.678291,80.846497 
z"/>
<path fill="#6754AF" opacity="1.000000" stroke="none" 
	d="
M97.627586,36.611359 
	C98.616524,40.611031 99.756615,44.226852 100.046677,47.909626 
	C100.166862,49.435547 98.647682,52.337601 97.565361,52.495293 
	C92.885834,53.177113 88.092766,53.110123 83.338821,53.201336 
	C82.890259,53.209942 81.992699,52.369621 82.034904,52.009041 
	C82.634857,46.883774 82.477051,41.417175 84.346611,36.775948 
	C85.751617,33.287987 92.524055,33.592564 97.627586,36.611359 
z"/>
</svg>